<mxfile host="65bd71144e">
    <diagram id="G6S0P2xHK8XisXXSOF0E" name="Page-1">
        <mxGraphModel dx="1618" dy="564" grid="1" gridSize="10" guides="1" tooltips="1" connect="1" arrows="1" fold="1" page="1" pageScale="1" pageWidth="850" pageHeight="1100" math="0" shadow="0">
            <root>
                <mxCell id="0"/>
                <mxCell id="1" parent="0"/>
                <mxCell id="2" value="Welcome to Doggy DJ!" style="whiteSpace=wrap;html=1;" vertex="1" parent="1">
                    <mxGeometry x="295" y="20" width="210" height="50" as="geometry"/>
                </mxCell>
                <mxCell id="3" value="Randomized Dog GIF" style="whiteSpace=wrap;html=1;" vertex="1" parent="1">
                    <mxGeometry x="290" y="120" width="220" height="90" as="geometry"/>
                </mxCell>
                <mxCell id="4" value="Dog song playback" style="whiteSpace=wrap;html=1;" vertex="1" parent="1">
                    <mxGeometry x="90" y="260" width="620" height="210" as="geometry"/>
                </mxCell>
                <mxCell id="5" value="Rap" style="whiteSpace=wrap;html=1;rotation=0;" vertex="1" parent="1">
                    <mxGeometry x="770" y="290" width="60" height="40" as="geometry"/>
                </mxCell>
                <mxCell id="6" value="R&amp;amp;B" style="whiteSpace=wrap;html=1;rotation=0;" vertex="1" parent="1">
                    <mxGeometry x="770" y="365" width="60" height="40" as="geometry"/>
                </mxCell>
                <mxCell id="7" value="Pop" style="whiteSpace=wrap;html=1;rotation=0;" vertex="1" parent="1">
                    <mxGeometry x="770" y="230" width="60" height="40" as="geometry"/>
                </mxCell>
                <mxCell id="8" value="Rock" style="whiteSpace=wrap;html=1;rotation=0;" vertex="1" parent="1">
                    <mxGeometry x="770" y="434.1" width="60" height="40" as="geometry"/>
                </mxCell>
                <mxCell id="9" value="Alt" style="whiteSpace=wrap;html=1;rotation=0;" vertex="1" parent="1">
                    <mxGeometry x="770" y="90" width="60" height="40" as="geometry"/>
                </mxCell>
                <mxCell id="15" value="&lt;b&gt;Genre&lt;/b&gt;" style="whiteSpace=wrap;html=1;rotation=0;" vertex="1" parent="1">
                    <mxGeometry x="755" y="30" width="90" height="40" as="geometry"/>
                </mxCell>
                <mxCell id="17" value="" style="html=1;verticalLabelPosition=bottom;align=center;labelBackgroundColor=#ffffff;verticalAlign=top;strokeWidth=2;strokeColor=#0080F0;shadow=0;dashed=0;shape=mxgraph.ios7.icons.pause;pointerEvents=1" vertex="1" parent="1">
                    <mxGeometry x="425" y="410" width="15" height="40" as="geometry"/>
                </mxCell>
                <mxCell id="18" value="" style="html=1;verticalLabelPosition=bottom;align=center;labelBackgroundColor=#ffffff;verticalAlign=top;strokeWidth=2;strokeColor=#0080F0;shadow=0;dashed=0;shape=mxgraph.ios7.icons.backward;" vertex="1" parent="1">
                    <mxGeometry x="280" y="410" width="50" height="40" as="geometry"/>
                </mxCell>
                <mxCell id="19" value="" style="html=1;verticalLabelPosition=bottom;align=center;labelBackgroundColor=#ffffff;verticalAlign=top;strokeWidth=2;strokeColor=#0080F0;shadow=0;dashed=0;shape=mxgraph.ios7.icons.backward;rotation=-180;" vertex="1" parent="1">
                    <mxGeometry x="470" y="410" width="50" height="40" as="geometry"/>
                </mxCell>
                <mxCell id="20" value="" style="html=1;verticalLabelPosition=bottom;align=center;labelBackgroundColor=#ffffff;verticalAlign=top;strokeWidth=2;strokeColor=#0080F0;shadow=0;dashed=0;shape=mxgraph.ios7.icons.play;" vertex="1" parent="1">
                    <mxGeometry x="360" y="410" width="41" height="40" as="geometry"/>
                </mxCell>
                <mxCell id="21" value="" style="ellipse;shape=doubleEllipse;whiteSpace=wrap;html=1;aspect=fixed;" vertex="1" parent="1">
                    <mxGeometry x="580" y="320" width="80" height="80" as="geometry"/>
                </mxCell>
                <mxCell id="22" value="" style="line;strokeWidth=2;html=1;rotation=90;" vertex="1" parent="1">
                    <mxGeometry x="595" y="355" width="50" height="10" as="geometry"/>
                </mxCell>
                <mxCell id="23" value="Spinning record" style="whiteSpace=wrap;html=1;rotation=0;" vertex="1" parent="1">
                    <mxGeometry x="585" y="510" width="60" height="40" as="geometry"/>
                </mxCell>
                <mxCell id="26" value="" style="edgeStyle=elbowEdgeStyle;elbow=horizontal;endArrow=classic;html=1;exitX=1;exitY=0.5;exitDx=0;exitDy=0;" edge="1" parent="1" source="23" target="21">
                    <mxGeometry width="50" height="50" relative="1" as="geometry">
                        <mxPoint x="660" y="530" as="sourcePoint"/>
                        <mxPoint x="710" y="480" as="targetPoint"/>
                    </mxGeometry>
                </mxCell>
                <mxCell id="28" value="" style="line;strokeWidth=2;html=1;" vertex="1" parent="1">
                    <mxGeometry x="210" y="390" width="370" height="10" as="geometry"/>
                </mxCell>
                <mxCell id="29" value="" style="shape=waypoint;sketch=0;fillStyle=solid;size=6;pointerEvents=1;points=[];fillColor=none;resizable=0;rotatable=0;perimeter=centerPerimeter;snapToPoint=1;" vertex="1" parent="1">
                    <mxGeometry x="385" y="375" width="40" height="40" as="geometry"/>
                </mxCell>
                <mxCell id="30" value="" style="line;strokeWidth=2;direction=south;html=1;" vertex="1" parent="1">
                    <mxGeometry x="170" y="370" width="10" height="40" as="geometry"/>
                </mxCell>
                <mxCell id="32" value="" style="html=1;verticalLabelPosition=bottom;align=center;labelBackgroundColor=#ffffff;verticalAlign=top;strokeWidth=2;strokeColor=#0080F0;shadow=0;dashed=0;shape=mxgraph.ios7.icons.volume_2;pointerEvents=1" vertex="1" parent="1">
                    <mxGeometry x="158.85" y="439.99999999999994" width="30.299999999999997" height="28.2" as="geometry"/>
                </mxCell>
                <mxCell id="33" value="" style="html=1;verticalLabelPosition=bottom;labelBackgroundColor=#ffffff;verticalAlign=top;shadow=0;dashed=0;strokeWidth=2;shape=mxgraph.ios7.misc.up;strokeColor=#0080f0;" vertex="1" parent="1">
                    <mxGeometry x="168" y="354" width="12" height="6" as="geometry"/>
                </mxCell>
                <mxCell id="35" value="" style="html=1;verticalLabelPosition=bottom;labelBackgroundColor=#ffffff;verticalAlign=top;shadow=0;dashed=0;strokeWidth=2;shape=mxgraph.ios7.misc.up;strokeColor=#0080f0;rotation=-180;" vertex="1" parent="1">
                    <mxGeometry x="168" y="424" width="12" height="6" as="geometry"/>
                </mxCell>
                <mxCell id="36" value="Classical" style="whiteSpace=wrap;html=1;rotation=0;" vertex="1" parent="1">
                    <mxGeometry x="770" y="160" width="60" height="40" as="geometry"/>
                </mxCell>
                <mxCell id="37" value="Relaxation" style="whiteSpace=wrap;html=1;rotation=0;" vertex="1" parent="1">
                    <mxGeometry x="770" y="510" width="60" height="40" as="geometry"/>
                </mxCell>
                <mxCell id="38" value="Song&lt;br&gt;Artist" style="shape=ext;double=1;rounded=0;whiteSpace=wrap;html=1;" vertex="1" parent="1">
                    <mxGeometry x="345" y="300" width="120" height="30" as="geometry"/>
                </mxCell>
            </root>
        </mxGraphModel>
    </diagram>
</mxfile>